<?xml version="1.0" encoding="UTF-8"?>
<svg id="Capa_2" data-name="Capa 2" xmlns="http://www.w3.org/2000/svg" viewBox="0 0 29.95 44.72">
  <defs>
    <style>
      .cls-1 {
        fill: #60f160;
      }
    </style>
  </defs>
  <g id="Capa_1-2" data-name="Capa 1">
    <path class="cls-1" d="M17.89,27.07c-.14,1.36-.53,2.35-1.18,2.97-.65,.62-1.46,.93-2.44,.93-1.05,0-1.92-.37-2.58-1.11s-1-1.97-1-3.71v-4.04c5.7-2.18,9.13-3.85,10.3-5.03s1.76-2.37,1.76-3.59c0-1.71-.69-3.19-2.06-4.43-1.37-1.24-3.31-1.86-5.82-1.86-2.65,0-5.2,.61-7.66,1.83v1.05c0,1.71-.33,2.94-1,3.67s-1.54,1.11-2.62,1.11-1.92-.36-2.58-1.09c-.67-.73-1-1.96-1-3.69V4.29C3.68,2.55,6.54,1.41,8.58,.84s4.15-.84,6.33-.84c4.55,0,8.19,1.31,10.93,3.94,2.74,2.62,4.11,5.92,4.11,9.88,0,2.81-.83,5.2-2.48,7.17s-4.85,4-9.58,6.08Zm1.51,13.92c0,1.1-.39,2-1.18,2.69-.79,.69-2.09,1.04-3.92,1.04s-3.13-.35-3.92-1.04c-.79-.69-1.18-1.59-1.18-2.69s.39-2,1.16-2.69c.77-.69,2.09-1.04,3.94-1.04s3.13,.35,3.92,1.04c.79,.69,1.18,1.59,1.18,2.69Z"/>
  </g>
</svg>